<?xml version="1.0" encoding="utf-8"?>
<!-- Generator: Adobe Illustrator 20.0.0, SVG Export Plug-In . SVG Version: 6.00 Build 0)  -->
<svg version="1.1" id="Layer_1" xmlns="http://www.w3.org/2000/svg" xmlns:xlink="http://www.w3.org/1999/xlink" x="0px" y="0px"
	 viewBox="0 0 130.1 135" style="enable-background:new 0 0 130.1 135;" xml:space="preserve">
<style type="text/css">
	.st0{fill:#CCC2B2;}
</style>
<g>
	<g>
		<g>
			<g>
				<g>
					<path class="st0" d="M101.2,112.2c-1.4,0-2.4-1.1-2.4-2.4c0-19-15.4-34.4-34.4-34.4S30,90.8,30,109.8c0,1.3-1.1,2.4-2.4,2.4
						c-1.4,0-2.4-1.1-2.4-2.4c0-21.7,17.6-39.3,39.3-39.3s39.3,17.6,39.3,39.3C103.6,111.1,102.6,112.2,101.2,112.2z"/>
				</g>
				<g>
					<path class="st0" d="M64.4,68.2c-12.1,0-22-9.9-22-22s9.9-22,22-22s22,9.9,22,22S76.5,68.2,64.4,68.2z M64.4,29.1
						c-9.4,0-17.1,7.7-17.1,17.1S55,63.3,64.4,63.3s17.1-7.7,17.1-17.1S73.8,29.1,64.4,29.1z"/>
				</g>
			</g>
		</g>
	</g>
	<path class="st0" d="M120.9,135H9.2c-5.1,0-9.2-4.1-9.2-9.2V9.2C0,4.1,4.1,0,9.2,0h111.7c5.1,0,9.2,4.1,9.2,9.2v116.5
		C130.1,130.9,126,135,120.9,135z M9.2,5.1C7,5.1,5.1,7,5.1,9.2v116.5c0,2.3,1.8,4.1,4.1,4.1h111.7c2.3,0,4.1-1.8,4.1-4.1V9.2
		c0-2.3-1.8-4.1-4.1-4.1H9.2z"/>
</g>
</svg>
