<?xml version="1.0" encoding="utf-8"?>
<!-- Generator: Adobe Illustrator 20.0.0, SVG Export Plug-In . SVG Version: 6.00 Build 0)  -->
<svg version="1.1" id="Layer_1" xmlns="http://www.w3.org/2000/svg" xmlns:xlink="http://www.w3.org/1999/xlink" x="0px" y="0px"
	 viewBox="0 0 209.8 104.4" style="enable-background:new 0 0 209.8 104.4;" xml:space="preserve">
<style type="text/css">
	.st0{fill:#CCC2B2;}
	.st1{fill:#FFFFFF;}
</style>
<path class="st0" d="M52.2,104.4C23.4,104.4,0,81,0,52.2S23.4,0,52.2,0c28.8,0,52.2,23.4,52.2,52.2S81,104.4,52.2,104.4z M52.2,5
	C26.2,5,5,26.2,5,52.2s21.2,47.2,47.2,47.2s47.2-21.2,47.2-47.2S78.2,5,52.2,5z"/>
<g>
	<path class="st1" d="M199.3,45h-12.9V33h-20.8v12.2h-41.1c-3.2-10.2-13.1-17.5-24.6-16.5c-11.5,1-20.7,10.4-21.4,21.9
		c-0.8,13.7,10,25,23.5,25c9.8,0,18.3-6,21.8-14.6h75.6c4.5,0,8.1-3.6,8.1-8.1v0C207.3,48.6,203.7,45,199.3,45z"/>
	<path class="st0" d="M101.9,78.2c-7.2,0-14.1-3-19-8.2c-5-5.3-7.5-12.2-7-19.5c0.8-12.8,11-23.2,23.7-24.3
		c11.7-1,22.4,5.7,26.5,16.5H163V33c0-1.4,1.1-2.5,2.5-2.5h20.8c1.4,0,2.5,1.1,2.5,2.5v9.5h10.4c5.8,0,10.6,4.7,10.6,10.6
		s-4.7,10.6-10.6,10.6h-74C120.9,72.6,111.9,78.2,101.9,78.2z M101.9,31.2c-0.6,0-1.2,0-1.9,0.1c-10.3,0.9-18.5,9.3-19.1,19.6
		c-0.4,5.9,1.6,11.5,5.7,15.7c4,4.3,9.5,6.6,15.3,6.6c8.6,0,16.2-5.1,19.5-13.1c0.4-0.9,1.3-1.6,2.3-1.6h75.6c3.1,0,5.6-2.5,5.6-5.6
		s-2.5-5.6-5.6-5.6h-12.9c-1.4,0-2.5-1.1-2.5-2.5v-9.5H168v9.8c0,1.4-1.1,2.5-2.5,2.5h-41.1c-1.1,0-2.1-0.7-2.4-1.8
		C119.2,37.1,111.1,31.2,101.9,31.2z"/>
</g>
<g>
	<polyline class="st1" points="52.2,21 52.2,52.2 35,65.3 	"/>
	<path class="st0" d="M35,67.8c-0.8,0-1.5-0.3-2-1c-0.8-1.1-0.6-2.7,0.5-3.5L49.7,51V21c0-1.4,1.1-2.5,2.5-2.5s2.5,1.1,2.5,2.5v31.2
		c0,0.8-0.4,1.5-1,2L36.5,67.3C36.1,67.7,35.5,67.8,35,67.8z"/>
</g>
</svg>
