<?xml version="1.0" encoding="utf-8"?>
<!-- Generator: Adobe Illustrator 20.0.0, SVG Export Plug-In . SVG Version: 6.00 Build 0)  -->
<svg version="1.1" id="Layer_1" xmlns="http://www.w3.org/2000/svg" xmlns:xlink="http://www.w3.org/1999/xlink" x="0px" y="0px"
	 viewBox="0 0 271.2 135.2" style="enable-background:new 0 0 271.2 135.2;" xml:space="preserve">
<style type="text/css">
	.st0{fill:#CCC2B2;}
</style>
<g>
	<g>
		<g>
			<g>
				<g>
					<path class="st0" d="M78.7,135.2c-1.4,0-2.5-1.1-2.5-2.5c0-19.6-16-35.6-35.6-35.6c-19.6,0-35.6,16-35.6,35.6
						c0,1.4-1.1,2.5-2.5,2.5S0,134,0,132.6C0,110.2,18.2,92,40.6,92c22.4,0,40.6,18.2,40.6,40.6C81.2,134,80.1,135.2,78.7,135.2z"/>
				</g>
				<g>
					<path class="st0" d="M40.6,89.7c-12.5,0-22.7-10.2-22.7-22.7s10.2-22.7,22.7-22.7s22.7,10.2,22.7,22.7S53.2,89.7,40.6,89.7z
						 M40.6,49.3c-9.8,0-17.7,7.9-17.7,17.7s7.9,17.7,17.7,17.7s17.7-7.9,17.7-17.7S50.4,49.3,40.6,49.3z"/>
				</g>
			</g>
		</g>
	</g>
	<g>
		<g>
			<path class="st0" d="M95.6,54.3c-0.5,0-1.1-0.2-1.5-0.5c-0.9-0.7-1.3-1.9-0.9-2.9l5-15.1c0.4-1.1,0-2.2-0.9-2.8l-12.9-9.4
				c-0.9-0.6-1.3-1.7-1-2.8c0.3-1.1,1.4-1.9,2.5-1.9h15.8c1.1,0,2.2-0.7,2.6-1.8l4.9-14.9c0.2-1,0.9-1.7,2-1.9c0.1,0,0.3,0,0.4,0
				c1.1,0,2.1,0.7,2.5,1.8l5,15.1c0.4,1.1,1.3,1.7,2.5,1.7h15.8c1,0,1.9,0.6,2.3,1.6c0.4,1,0.2,2.2-0.6,2.9
				c-0.1,0.1-0.2,0.1-0.2,0.2l-13,9.3c-0.8,0.6-1.3,1.9-1,3l4.9,15c0.3,0.9,0.1,1.9-0.6,2.6c-0.5,0.5-1.2,0.8-1.9,0.8
				c-0.3,0-0.6-0.1-0.9-0.1c-0.2-0.1-0.4-0.2-0.5-0.3l-12.8-9.3c-0.4-0.3-0.9-0.5-1.5-0.5c-0.6,0-1.2,0.2-1.8,0.5l-12.6,9.2
				C96.6,54.1,96.1,54.3,95.6,54.3z M99.3,29.8c2.4,1.5,3.3,4.3,2.4,7.1l-3.9,11.8l9.9-7.2c1.2-0.8,2.6-1.2,3.9-1.2
				c1.4,0,2.6,0.4,3.7,1.1l9.9,7.2l-3.9-11.8c-0.7-2.7,0.3-5.6,2.4-7.1l10-7.2h-12.2c-2.8,0-5.2-1.7-6.1-4.3l-3.8-11.7l-3.8,11.7
				c-1,2.6-3.4,4.3-6.1,4.3H89.4L99.3,29.8z"/>
			<path class="st0" d="M111.5,0.4c1,0,2,0.7,2.3,1.6v0l5,15.1c0.4,1.2,1.4,1.9,2.7,1.9h15.8c0.9,0,1.8,0.6,2.1,1.4
				c0.4,0.9,0.2,2-0.5,2.7c-0.1,0.1-0.1,0.1-0.2,0.2l-13,9.3c-0.9,0.6-1.4,2.1-1.1,3.2l4.9,15c0.3,0.9,0.1,1.8-0.5,2.4
				c-0.5,0.5-1.1,0.7-1.8,0.7c-0.3,0-0.6,0-0.9-0.1c-0.2-0.1-0.3-0.1-0.5-0.2l-12.8-9.3c-0.5-0.3-1-0.5-1.6-0.5
				c-0.6,0-1.3,0.2-1.9,0.6L97,53.7c-0.5,0.3-1,0.5-1.4,0.5c-0.5,0-1-0.2-1.4-0.5c-0.8-0.6-1.2-1.7-0.8-2.7l5-15.1
				c0.4-1.2,0-2.4-1-3l-12.9-9.4c-0.8-0.6-1.2-1.6-0.9-2.6c0.3-1,1.3-1.7,2.3-1.7h15.8c1.2,0,2.3-0.8,2.8-1.9l4.9-14.9
				c0.1-0.9,0.9-1.6,1.8-1.8C111.2,0.4,111.4,0.4,111.5,0.4 M97.4,49.2l10.4-7.6c1.2-0.7,2.5-1.1,3.8-1.1c1.3,0,2.5,0.4,3.6,1.1
				l10.4,7.6l-4.1-12.4c-0.7-2.6,0.3-5.4,2.3-6.9l10.6-7.6h-12.8c-2.7,0-5.1-1.6-5.9-4.2l-4-12.3l-4,12.3c-0.9,2.5-3.3,4.2-5.9,4.2
				H88.8L99.2,30c2.3,1.4,3.2,4.1,2.3,6.9L97.4,49.2 M111.5,0c-0.2,0-0.3,0-0.5,0c-1.1,0.2-2,1-2.1,2.1L104,17
				c-0.4,1-1.3,1.7-2.4,1.7H85.9c-1.2,0-2.3,0.8-2.7,2c-0.4,1.2,0.1,2.4,1.1,3l12.8,9.4c0.9,0.6,1.2,1.5,0.9,2.6l-5,15.1
				c-0.4,1.2,0,2.4,1,3.2c0.5,0.4,1,0.6,1.6,0.6c0.6,0,1.1-0.2,1.7-0.5l12.7-9.2c0.5-0.3,1.1-0.5,1.7-0.5c0.5,0,1,0.1,1.4,0.4
				l12.8,9.3c0.2,0.1,0.4,0.2,0.6,0.3c0.3,0.1,0.6,0.2,1,0.2c0.8,0,1.5-0.3,2.1-0.8c0.7-0.7,1-1.8,0.6-2.8l-4.9-15
				c-0.2-0.9,0.2-2.2,0.9-2.8l13-9.3c0.1-0.1,0.2-0.1,0.3-0.2c0.8-0.8,1.1-2.1,0.6-3.1c-0.4-1-1.4-1.7-2.5-1.7h-15.8
				c-1.1,0-2-0.6-2.4-1.6l-5-15.1v0l0-0.1C113.8,0.8,112.7,0,111.5,0L111.5,0z M90,22.8h11.6c2.8,0,5.3-1.8,6.3-4.4l3.7-11.1
				l3.7,11.1c0.9,2.7,3.4,4.4,6.3,4.4h11.6l-9.5,6.8c-2.2,1.5-3.2,4.5-2.5,7.3l3.7,11.2l-9.4-6.8c-1.1-0.8-2.4-1.2-3.8-1.2
				c-1.4,0-2.8,0.4-4,1.2l-9.4,6.8l3.7-11.2c1-2.9-0.1-5.8-2.5-7.3L90,22.8L90,22.8z"/>
		</g>
	</g>
	<g>
		<g>
			<path class="st0" d="M161.1,54.3c-0.5,0-1.1-0.2-1.5-0.5c-0.9-0.7-1.3-1.9-0.9-2.9l5-15.1c0.4-1.1,0-2.2-0.9-2.8l-12.9-9.4
				c-0.9-0.6-1.3-1.7-1-2.8c0.3-1.1,1.4-1.9,2.5-1.9h15.8c1.1,0,2.2-0.7,2.6-1.8l4.9-14.9c0.2-1,0.9-1.7,2-1.9c0.1,0,0.3,0,0.4,0
				c1.1,0,2.1,0.7,2.5,1.8l5,15.1c0.4,1.1,1.3,1.7,2.5,1.7h15.8c1,0,1.9,0.6,2.3,1.6c0.4,1,0.2,2.2-0.6,2.9
				c-0.1,0.1-0.2,0.1-0.2,0.2l-13,9.3c-0.8,0.6-1.3,1.9-1,3l4.9,15c0.3,0.9,0.1,1.9-0.6,2.6c-0.5,0.5-1.2,0.8-1.9,0.8
				c-0.3,0-0.6-0.1-0.9-0.1c-0.2-0.1-0.4-0.2-0.5-0.3l-12.8-9.3c-0.4-0.3-0.9-0.5-1.5-0.5c-0.6,0-1.2,0.2-1.8,0.5l-12.6,9.2
				C162.2,54.1,161.7,54.3,161.1,54.3z M164.9,29.8c2.4,1.5,3.3,4.3,2.4,7.1l-3.9,11.8l9.9-7.2c1.2-0.8,2.6-1.2,3.9-1.2
				c1.4,0,2.6,0.4,3.7,1.1l9.9,7.2l-3.9-11.8c-0.7-2.7,0.3-5.6,2.4-7.1l10-7.2h-12.2c-2.8,0-5.2-1.7-6.1-4.3l-3.8-11.7l-3.8,11.7
				c-1,2.6-3.4,4.3-6.1,4.3H155L164.9,29.8z"/>
			<path class="st0" d="M177.1,0.4c1,0,2,0.7,2.3,1.6v0l5,15.1c0.4,1.2,1.4,1.9,2.7,1.9h15.8c0.9,0,1.8,0.6,2.1,1.4
				c0.4,0.9,0.2,2-0.5,2.7c-0.1,0.1-0.1,0.1-0.2,0.2l-13,9.3c-0.9,0.6-1.4,2.1-1.1,3.2l4.9,15c0.3,0.9,0.1,1.8-0.5,2.4
				c-0.5,0.5-1.1,0.7-1.8,0.7c-0.3,0-0.6,0-0.9-0.1c-0.2-0.1-0.3-0.1-0.5-0.2l-12.8-9.3c-0.5-0.3-1-0.5-1.6-0.5
				c-0.6,0-1.3,0.2-1.9,0.6l-12.7,9.2c-0.5,0.3-1,0.5-1.4,0.5c-0.5,0-1-0.2-1.4-0.5c-0.8-0.6-1.2-1.7-0.8-2.7l5-15.1
				c0.4-1.2,0-2.4-1-3L150,23.4c-0.8-0.6-1.2-1.6-0.9-2.6c0.3-1,1.3-1.7,2.3-1.7h15.8c1.2,0,2.3-0.8,2.8-1.9l4.9-14.9
				c0.1-0.9,0.9-1.6,1.8-1.8C176.8,0.4,177,0.4,177.1,0.4 M163,49.2l10.4-7.6c1.2-0.7,2.5-1.1,3.8-1.1c1.3,0,2.5,0.4,3.6,1.1
				l10.4,7.6L187,36.8c-0.7-2.6,0.3-5.4,2.3-6.9l10.6-7.6h-12.8c-2.7,0-5.1-1.6-5.9-4.2l-4-12.3l-4,12.3c-0.9,2.5-3.3,4.2-5.9,4.2
				h-12.9l10.4,7.6c2.3,1.4,3.2,4.1,2.3,6.9L163,49.2 M177.1,0c-0.2,0-0.3,0-0.5,0c-1.1,0.2-2,1-2.1,2.1L169.6,17
				c-0.4,1-1.3,1.7-2.4,1.7h-15.8c-1.2,0-2.3,0.8-2.7,2c-0.4,1.2,0.1,2.4,1.1,3l12.8,9.4c0.9,0.6,1.2,1.5,0.9,2.6l-5,15.1
				c-0.4,1.2,0,2.4,1,3.2c0.5,0.4,1,0.6,1.6,0.6c0.6,0,1.1-0.2,1.7-0.5l12.7-9.2c0.5-0.3,1.1-0.5,1.7-0.5c0.5,0,1,0.1,1.4,0.4
				l12.8,9.3c0.2,0.1,0.4,0.2,0.6,0.3c0.3,0.1,0.6,0.2,1,0.2c0.8,0,1.5-0.3,2.1-0.8c0.7-0.7,1-1.8,0.6-2.8l-4.9-15
				c-0.2-0.9,0.2-2.2,0.9-2.8l13-9.3c0.1-0.1,0.2-0.1,0.3-0.2c0.8-0.8,1.1-2.1,0.6-3.1c-0.4-1-1.4-1.7-2.5-1.7h-15.8
				c-1.1,0-2-0.6-2.4-1.6l-5-15.1v0l0-0.1C179.4,0.8,178.3,0,177.1,0L177.1,0z M155.6,22.8h11.6c2.8,0,5.3-1.8,6.3-4.4l3.7-11.1
				l3.7,11.1c0.9,2.7,3.4,4.4,6.3,4.4h11.6l-9.5,6.8c-2.2,1.5-3.2,4.5-2.5,7.3l3.7,11.2l-9.4-6.8c-1.1-0.8-2.4-1.2-3.8-1.2
				c-1.4,0-2.8,0.4-4,1.2l-9.4,6.8l3.7-11.2c1-2.9-0.1-5.8-2.5-7.3L155.6,22.8L155.6,22.8z"/>
		</g>
	</g>
	<g>
		<g>
			<path class="st0" d="M226.7,54.3c-0.5,0-1.1-0.2-1.5-0.5c-0.9-0.7-1.3-1.9-0.9-2.9l5-15.1c0.4-1.1,0-2.2-0.9-2.8l-12.9-9.4
				c-0.9-0.6-1.3-1.7-1-2.8c0.3-1.1,1.4-1.9,2.5-1.9h15.8c1.1,0,2.2-0.7,2.6-1.8l4.9-14.9c0.2-1,0.9-1.7,2-1.9c0.1,0,0.3,0,0.4,0
				c1.1,0,2.1,0.7,2.5,1.8l5,15.1c0.4,1.1,1.3,1.7,2.5,1.7h15.8c1,0,1.9,0.6,2.3,1.6c0.4,1,0.2,2.2-0.6,2.9
				c-0.1,0.1-0.2,0.1-0.2,0.2l-13,9.3c-0.8,0.6-1.3,1.9-1,3l4.9,15c0.3,0.9,0.1,1.9-0.6,2.6c-0.5,0.5-1.2,0.8-1.9,0.8
				c-0.3,0-0.6-0.1-0.9-0.1c-0.2-0.1-0.4-0.1-0.5-0.3l-12.8-9.3c-0.4-0.3-0.9-0.5-1.5-0.5c-0.6,0-1.2,0.2-1.8,0.5l-12.6,9.2
				C227.8,54.1,227.2,54.3,226.7,54.3z M230.4,29.8c2.4,1.5,3.3,4.3,2.4,7.1L229,48.7l9.9-7.2c1.2-0.8,2.6-1.2,3.9-1.2
				c1.4,0,2.6,0.4,3.7,1.1l9.9,7.2l-3.9-11.8c-0.7-2.7,0.3-5.6,2.4-7.1l10-7.2h-12.2c-2.8,0-5.2-1.7-6.1-4.3l-3.8-11.7l-3.8,11.7
				c-1,2.6-3.4,4.3-6.1,4.3h-12.3L230.4,29.8z"/>
			<path class="st0" d="M242.7,0.4c1,0,2,0.7,2.3,1.6v0l5,15.1c0.4,1.2,1.4,1.9,2.7,1.9h15.8c0.9,0,1.8,0.6,2.1,1.4
				c0.4,0.9,0.2,2-0.5,2.7c-0.1,0.1-0.1,0.1-0.2,0.2l-13,9.3c-0.9,0.6-1.4,2.1-1.1,3.2l4.9,15c0.3,0.9,0.1,1.8-0.5,2.4
				c-0.5,0.5-1.1,0.7-1.8,0.7c-0.3,0-0.6,0-0.9-0.1c-0.2-0.1-0.3-0.1-0.5-0.2l-12.8-9.3c-0.5-0.3-1-0.5-1.6-0.5
				c-0.6,0-1.3,0.2-1.9,0.6l-12.7,9.2c-0.5,0.3-1,0.5-1.4,0.5c-0.5,0-1-0.2-1.4-0.5c-0.8-0.6-1.2-1.7-0.8-2.7l5-15.1
				c0.4-1.2,0-2.4-1-3l-12.9-9.4c-0.8-0.6-1.2-1.6-0.9-2.6c0.3-1,1.3-1.7,2.3-1.7h15.8c1.2,0,2.3-0.8,2.8-1.9l4.9-14.9
				c0.1-0.9,0.9-1.6,1.8-1.8C242.4,0.4,242.5,0.4,242.7,0.4 M228.6,49.2l10.4-7.6c1.2-0.7,2.5-1.1,3.8-1.1c1.3,0,2.5,0.4,3.6,1.1
				l10.4,7.6l-4.1-12.4c-0.7-2.6,0.3-5.4,2.3-6.9l10.6-7.6h-12.8c-2.7,0-5.1-1.6-5.9-4.2l-4-12.3l-4,12.3c-0.9,2.5-3.3,4.2-5.9,4.2
				h-12.9l10.4,7.6c2.3,1.4,3.2,4.1,2.3,6.9L228.6,49.2 M242.7,0c-0.2,0-0.3,0-0.5,0c-1.1,0.2-2,1-2.1,2.1L235.2,17
				c-0.4,1-1.3,1.7-2.4,1.7H217c-1.2,0-2.3,0.8-2.7,2c-0.4,1.2,0.1,2.4,1.1,3l12.8,9.4c0.9,0.6,1.2,1.5,0.9,2.6l-5,15.1
				c-0.4,1.2,0,2.4,1,3.2c0.5,0.4,1,0.6,1.6,0.6c0.6,0,1.1-0.2,1.7-0.5l12.7-9.2c0.5-0.3,1.1-0.5,1.7-0.5c0.5,0,1,0.1,1.4,0.4
				l12.8,9.3c0.2,0.1,0.4,0.2,0.6,0.3c0.3,0.1,0.6,0.2,1,0.2c0.8,0,1.5-0.3,2.1-0.8c0.7-0.7,1-1.8,0.6-2.8l-4.9-15
				c-0.2-0.9,0.2-2.2,0.9-2.8l13-9.3c0.1-0.1,0.2-0.1,0.3-0.2c0.8-0.8,1.1-2.1,0.6-3.1c-0.4-1-1.4-1.7-2.5-1.7h-15.8
				c-1.1,0-2-0.6-2.4-1.6l-5-15.1v0l0-0.1C245,0.8,243.9,0,242.7,0L242.7,0z M221.1,22.8h11.6c2.8,0,5.3-1.8,6.3-4.4l3.7-11.1
				l3.7,11.1c0.9,2.7,3.4,4.4,6.3,4.4h11.6l-9.5,6.8c-2.2,1.5-3.2,4.5-2.5,7.3l3.7,11.2l-9.4-6.8c-1.1-0.8-2.4-1.2-3.8-1.2
				c-1.4,0-2.8,0.4-4,1.2l-9.4,6.8L233,37c1-2.9-0.1-5.8-2.5-7.3L221.1,22.8L221.1,22.8z"/>
		</g>
	</g>
</g>
</svg>
