<?xml version="1.0" encoding="utf-8"?>
<!-- Generator: Adobe Illustrator 20.0.0, SVG Export Plug-In . SVG Version: 6.00 Build 0)  -->
<svg version="1.1" id="Layer_1" xmlns="http://www.w3.org/2000/svg" xmlns:xlink="http://www.w3.org/1999/xlink" x="0px" y="0px"
	 viewBox="0 0 195.6 135" style="enable-background:new 0 0 195.6 135;" xml:space="preserve">
<style type="text/css">
	.st0{fill:#CCC2B2;}
	.st1{fill:#FFFFFF;}
</style>
<g>
	<g>
		<g>
			<g>
				<g>
					<path class="st0" d="M131.9,90.9c-1.4,0-2.5-1.1-2.5-2.5c0-19.6-16-35.6-35.6-35.6c-19.6,0-35.6,16-35.6,35.6
						c0,1.4-1.1,2.5-2.5,2.5s-2.5-1.1-2.5-2.5c0-22.4,18.2-40.6,40.6-40.6c22.4,0,40.6,18.2,40.6,40.6
						C134.4,89.8,133.3,90.9,131.9,90.9z"/>
				</g>
				<g>
					<path class="st0" d="M93.8,45.5c-12.5,0-22.7-10.2-22.7-22.7S81.3,0,93.8,0s22.7,10.2,22.7,22.7S106.3,45.5,93.8,45.5z
						 M93.8,5.1C84,5.1,76.1,13,76.1,22.7S84,40.4,93.8,40.4s17.7-7.9,17.7-17.7S103.5,5.1,93.8,5.1z"/>
				</g>
			</g>
		</g>
	</g>
	<g>
		<g>
			<g>
				<g>
					<path class="st0" d="M78.7,99.5c-1.4,0-2.5-1.1-2.5-2.5c0-19.6-16-35.6-35.6-35.6c-19.6,0-35.6,16-35.6,35.6
						c0,1.4-1.1,2.5-2.5,2.5S0,98.3,0,96.9c0-22.4,18.2-40.6,40.6-40.6c22.4,0,40.6,18.2,40.6,40.6C81.2,98.3,80.1,99.5,78.7,99.5z"
						/>
				</g>
				<g>
					<path class="st0" d="M40.6,54c-12.5,0-22.7-10.2-22.7-22.7S28.1,8.5,40.6,8.5s22.7,10.2,22.7,22.7S53.2,54,40.6,54z M40.6,13.6
						c-9.8,0-17.7,7.9-17.7,17.7s7.9,17.7,17.7,17.7S58.3,41,58.3,31.2S50.4,13.6,40.6,13.6z"/>
				</g>
			</g>
		</g>
	</g>
	<path class="st1" d="M136.4,115.5c-21.7,0-39.4-17.7-39.4-39.4s17.7-39.4,39.4-39.4s39.4,17.7,39.4,39.4S158.1,115.5,136.4,115.5z
		 M136.4,54.8c-11.8,0-21.4,9.6-21.4,21.4s9.6,21.4,21.4,21.4s21.4-9.6,21.4-21.4S148.1,54.8,136.4,54.8z"/>
	<g>
		<g>
			<g>
				<path class="st0" d="M136.4,48.2c15.5,0,28,12.4,28,28s-12.4,28-28,28s-28-12.4-28-28S120.8,48.2,136.4,48.2 M136.4,43.1
					c-18.3,0-33,14.8-33,33s14.8,33,33,33s33-14.8,33-33S154.6,43.1,136.4,43.1L136.4,43.1z"/>
			</g>
			<path class="st0" d="M193.1,135c-0.7,0-1.3-0.3-1.8-0.7l-33.4-33.8c-1-1-1-2.6,0-3.6c1-1,2.6-1,3.6,0l33.4,33.8c1,1,1,2.6,0,3.6
				C194.4,134.8,193.8,135,193.1,135z"/>
		</g>
	</g>
</g>
</svg>
