<?xml version="1.0" encoding="utf-8"?>
<!-- Generator: Adobe Illustrator 20.0.0, SVG Export Plug-In . SVG Version: 6.00 Build 0)  -->
<svg version="1.1" id="Layer_1" xmlns="http://www.w3.org/2000/svg" xmlns:xlink="http://www.w3.org/1999/xlink" x="0px" y="0px"
	 viewBox="0 0 184.7 131.3" style="enable-background:new 0 0 184.7 131.3;" xml:space="preserve">
<style type="text/css">
	.st0{fill:#CCC2B2;}
	.st1{fill:#FFFFFF;}
</style>
<g>
	<g>
		<g>
			<g>
				<g>
					<path class="st0" d="M131.8,91c-1.4,0-2.5-1.1-2.5-2.5c0-19.6-16-35.6-35.6-35.6s-35.6,16-35.6,35.6c0,1.4-1.1,2.5-2.5,2.5
						s-2.5-1.1-2.5-2.5c0-22.4,18.2-40.6,40.6-40.6s40.6,18.2,40.6,40.6C134.4,89.9,133.2,91,131.8,91z"/>
				</g>
				<g>
					<path class="st0" d="M93.8,45.5c-12.5,0-22.7-10.2-22.7-22.7S81.2,0,93.8,0s22.7,10.2,22.7,22.7S106.3,45.5,93.8,45.5z
						 M93.8,5.1C84,5.1,76.1,13,76.1,22.8S84,40.5,93.8,40.5s17.7-7.9,17.7-17.7S103.5,5.1,93.8,5.1z"/>
				</g>
			</g>
		</g>
	</g>
	<g>
		<g>
			<g>
				<g>
					<path class="st0" d="M78.7,99.5c-1.4,0-2.5-1.1-2.5-2.5c0-19.6-16-35.6-35.6-35.6S5,77.4,5,97c0,1.4-1.1,2.5-2.5,2.5
						S0,98.4,0,97c0-22.4,18.2-40.6,40.6-40.6S81.2,74.6,81.2,97C81.2,98.4,80.1,99.5,78.7,99.5z"/>
				</g>
				<g>
					<path class="st0" d="M40.6,54C28,54,17.8,43.8,17.8,31.3S28,8.6,40.5,8.6s22.7,10.2,22.7,22.7S53.1,54,40.6,54z M40.6,13.6
						c-9.8,0-17.7,7.9-17.7,17.7S30.8,49,40.6,49s17.7-7.9,17.7-17.7S50.3,13.6,40.6,13.6z"/>
				</g>
			</g>
		</g>
	</g>
	<path class="st1" d="M146.6,131.3c-0.4,0-0.9,0-1.3-0.1c-3.5-0.7-5.8-4.1-5.1-7.7c3.6-17.8,16.6-32.3,34-37.7
		c3.4-1.1,7.1,0.8,8.1,4.3c1.1,3.4-0.8,7.1-4.3,8.1c-12.8,4-22.4,14.7-25.1,27.9C152.4,129.1,149.6,131.3,146.6,131.3z"/>
	<path class="st1" d="M105,125.4c-0.4,0-0.7,0-1.1-0.1c-3.5-0.6-5.9-4-5.3-7.5c5.9-34.5,31.5-63.1,65.2-72.8c3.4-1,7.1,1,8,4.5
		s-1,7.1-4.5,8c-28.9,8.3-50.9,32.8-55.9,62.5C110.8,123.2,108.1,125.4,105,125.4z"/>
	<path class="st1" d="M125.2,128.3c-0.4,0-0.8,0-1.2-0.1c-3.5-0.6-5.9-4-5.2-7.5c4.7-26.3,24.4-48.2,50-55.8c3.4-1,7.1,0.9,8.1,4.4
		c1,3.4-0.9,7.1-4.4,8.1c-21,6.2-37,24.1-40.9,45.6C131.1,126.1,128.3,128.3,125.2,128.3z"/>
	<path class="st1" d="M105,125.4c-0.4,0-0.7,0-1.1-0.1c-3.5-0.6-5.9-4-5.3-7.5c5.9-34.5,31.5-63.1,65.2-72.8c3.4-1,7.1,1,8,4.5
		s-1,7.1-4.5,8c-28.9,8.3-50.9,32.8-55.9,62.5C110.8,123.2,108.1,125.4,105,125.4z"/>
	<path class="st1" d="M146.6,131.3c-0.4,0-0.9,0-1.3-0.1c-3.5-0.7-5.8-4.1-5.1-7.7c3.6-17.8,16.6-32.3,34-37.7
		c3.4-1.1,7.1,0.8,8.1,4.3c1.1,3.4-0.8,7.1-4.3,8.1c-12.8,4-22.4,14.7-25.1,27.9C152.4,129.1,149.6,131.3,146.6,131.3z"/>
	<path class="st1" d="M125.2,128.3c-0.4,0-0.8,0-1.2-0.1c-3.5-0.6-5.9-4-5.2-7.5c4.7-26.3,24.4-48.2,50-55.8c3.4-1,7.1,0.9,8.1,4.4
		c1,3.4-0.9,7.1-4.4,8.1c-21,6.2-37,24.1-40.9,45.6C131.1,126.1,128.3,128.3,125.2,128.3z"/>
	<circle class="st0" cx="177.1" cy="120.4" r="7.6"/>
	<path class="st0" d="M146.6,127.3c-0.2,0-0.3,0-0.5,0c-1.4-0.3-2.2-1.6-2-2.9c3.3-16.4,15.2-29.7,31.2-34.7
		c1.3-0.4,2.7,0.3,3.1,1.6c0.4,1.3-0.3,2.7-1.6,3.1c-14.2,4.5-24.9,16.3-27.8,30.9C148.8,126.5,147.8,127.3,146.6,127.3z"/>
	<path class="st0" d="M105,121.4c-0.1,0-0.3,0-0.4,0c-1.4-0.2-2.3-1.5-2-2.9c5.6-33,30.1-60.4,62.3-69.6c1.3-0.4,2.7,0.4,3.1,1.7
		c0.4,1.3-0.4,2.7-1.7,3.1c-30.4,8.7-53.5,34.5-58.8,65.7C107.2,120.6,106.2,121.4,105,121.4z"/>
	<path class="st0" d="M125.2,124.3c-0.1,0-0.3,0-0.4,0c-1.4-0.2-2.3-1.5-2-2.9c4.5-24.8,23-45.5,47.2-52.6c1.3-0.4,2.7,0.4,3.1,1.7
		c0.4,1.3-0.4,2.7-1.7,3.1c-22.4,6.6-39.6,25.8-43.7,48.7C127.5,123.4,126.4,124.3,125.2,124.3z"/>
	<path class="st0" d="M105,121.4c-0.1,0-0.3,0-0.4,0c-1.4-0.2-2.3-1.5-2-2.9c5.6-33,30.1-60.4,62.3-69.6c1.3-0.4,2.7,0.4,3.1,1.7
		c0.4,1.3-0.4,2.7-1.7,3.1c-30.4,8.7-53.5,34.5-58.8,65.7C107.2,120.6,106.2,121.4,105,121.4z"/>
	<path class="st0" d="M146.6,127.3c-0.2,0-0.3,0-0.5,0c-1.4-0.3-2.2-1.6-2-2.9c3.3-16.4,15.2-29.7,31.2-34.7
		c1.3-0.4,2.7,0.3,3.1,1.6c0.4,1.3-0.3,2.7-1.6,3.1c-14.2,4.5-24.9,16.3-27.8,30.9C148.8,126.5,147.8,127.3,146.6,127.3z"/>
	<path class="st0" d="M125.2,124.3c-0.1,0-0.3,0-0.4,0c-1.4-0.2-2.3-1.5-2-2.9c4.5-24.8,23-45.5,47.2-52.6c1.3-0.4,2.7,0.4,3.1,1.7
		c0.4,1.3-0.4,2.7-1.7,3.1c-22.4,6.6-39.6,25.8-43.7,48.7C127.5,123.4,126.4,124.3,125.2,124.3z"/>
</g>
</svg>
