<?xml version="1.0" encoding="utf-8"?>
<!-- Generator: Adobe Illustrator 20.0.0, SVG Export Plug-In . SVG Version: 6.00 Build 0)  -->
<svg version="1.1" id="Layer_1" xmlns="http://www.w3.org/2000/svg" xmlns:xlink="http://www.w3.org/1999/xlink" x="0px" y="0px"
	 viewBox="0 0 188.7 99.5" style="enable-background:new 0 0 188.7 99.5;" xml:space="preserve">
<style type="text/css">
	.st0{opacity:0.4;}
	.st1{fill:#CCC2B2;}
</style>
<g class="st0">
	<g>
		<g>
			<g>
				<path class="st1" d="M78.7,99.5c-1.4,0-2.5-1.1-2.5-2.5c0-19.6-16-35.6-35.6-35.6c-19.6,0-35.6,16-35.6,35.6
					c0,1.4-1.1,2.5-2.5,2.5S0,98.3,0,96.9c0-22.4,18.2-40.6,40.6-40.6c22.4,0,40.6,18.2,40.6,40.6C81.2,98.3,80.1,99.5,78.7,99.5z"
					/>
			</g>
			<g>
				<path class="st1" d="M40.6,54c-12.5,0-22.7-10.2-22.7-22.7S28.1,8.5,40.6,8.5s22.7,10.2,22.7,22.7S53.2,54,40.6,54z M40.6,13.6
					c-9.8,0-17.7,7.9-17.7,17.7s7.9,17.7,17.7,17.7S58.3,41,58.3,31.2S50.4,13.6,40.6,13.6z"/>
			</g>
		</g>
	</g>
</g>
<g class="st0">
	<g>
		<g>
			<g>
				<path class="st1" d="M186.2,99.5c-1.4,0-2.5-1.1-2.5-2.5c0-19.6-16-35.6-35.6-35.6c-19.6,0-35.6,16-35.6,35.6
					c0,1.4-1.1,2.5-2.5,2.5s-2.5-1.1-2.5-2.5c0-22.4,18.2-40.6,40.6-40.6c22.4,0,40.6,18.2,40.6,40.6
					C188.7,98.3,187.6,99.5,186.2,99.5z"/>
			</g>
			<g>
				<path class="st1" d="M148.1,54c-12.5,0-22.7-10.2-22.7-22.7s10.2-22.7,22.7-22.7s22.7,10.2,22.7,22.7S160.6,54,148.1,54z
					 M148.1,13.6c-9.8,0-17.7,7.9-17.7,17.7s7.9,17.7,17.7,17.7s17.7-7.9,17.7-17.7S157.8,13.6,148.1,13.6z"/>
			</g>
		</g>
	</g>
</g>
<g>
	<g>
		<g>
			<g>
				<path class="st1" d="M131.9,90.9c-1.4,0-2.5-1.1-2.5-2.5c0-19.6-16-35.6-35.6-35.6c-19.6,0-35.6,16-35.6,35.6
					c0,1.4-1.1,2.5-2.5,2.5s-2.5-1.1-2.5-2.5c0-22.4,18.2-40.6,40.6-40.6c22.4,0,40.6,18.2,40.6,40.6
					C134.4,89.8,133.3,90.9,131.9,90.9z"/>
			</g>
			<g>
				<path class="st1" d="M93.8,45.5c-12.5,0-22.7-10.2-22.7-22.7S81.3,0,93.8,0s22.7,10.2,22.7,22.7S106.3,45.5,93.8,45.5z
					 M93.8,5.1C84,5.1,76.1,13,76.1,22.7S84,40.4,93.8,40.4s17.7-7.9,17.7-17.7S103.5,5.1,93.8,5.1z"/>
			</g>
		</g>
	</g>
</g>
</svg>
