<?xml version="1.0" encoding="utf-8"?>
<!-- Generator: Adobe Illustrator 19.0.0, SVG Export Plug-In . SVG Version: 6.00 Build 0)  -->
<svg version="1.1" id="Layer_1" xmlns="http://www.w3.org/2000/svg" xmlns:xlink="http://www.w3.org/1999/xlink" x="0px" y="0px"
	 viewBox="0 0 118.9 19.5" style="enable-background:new 0 0 118.9 19.5;" xml:space="preserve">
<style type="text/css">
	.st0{fill:#FFFFFF;}
</style>
<path id="XMLID_50_" class="st0" d="M0,9.6c0-5.4,4.1-9.9,9.9-9.9c3.3,0,5.4,0.9,7.4,2.6l-2.1,2.5c-1.5-1.3-2.9-2.1-5.4-2.1
	c-3.5,0-6.2,3.1-6.2,6.8c0,3.9,2.6,6.9,6.5,6.9c1.8,0,3.5-0.6,4.6-1.5v-3.6H9.8V8.5H18v8.1c-1.9,1.6-4.6,3-8,3
	C3.9,19.5,0,15.2,0,9.6z"/>
<path id="XMLID_48_" class="st0" d="M26,0h3.2v19.2H26V0z"/>
<path id="XMLID_46_" class="st0" d="M42,3.2h-4.8V0h14.4v3.2h-6.4v16H42V3.2z"/>
<path id="XMLID_40_" class="st0" d="M62.8,3.2H58V0h14.4v3.2H66v16h-3.2V3.2z"/>
<path id="XMLID_8_" class="st0" d="M80.4,0h14.4v3.2H83.6V8h9.6v3.2h-9.6V16h11.2v3.2H80.4V0z"/>
<path id="XMLID_2_" class="st0" d="M118.9,19.2l-5.1-7.2c2.1-1,3.5-3.1,3.5-5.6c0-3.8-3.1-6.4-6.9-6.4l-7.5,0v19.2h3.2l0-6.4
	c0,0,4.3,0,4.3,0l4.6,6.4H118.9z M106,9.6l0-6.4l4.3,0c2,0,3.7,1.2,3.7,3.2c0,2-1.7,3.2-3.7,3.2L106,9.6z"/>
</svg>
