<svg xmlns="http://www.w3.org/2000/svg" viewBox="0 0 142.099 92.611" enable-background="new 0 0 142.099 92.611"><path fill-rule="evenodd" clip-rule="evenodd" fill="#666" d="M125.598 32.474l4.375-.01 7.025 14.176.51.678v-14.81h4.59v26.145l-4.3-.004-.287-.55-6.81-13.6-.506-.69v14.8h-4.596V32.475"/><path fill-rule="evenodd" clip-rule="evenodd" fill="#666" d="M89.942 58.625h-4.59V32.5c.23 0 .47-.027.713-.027 3.526 0 7.053-.008 10.578.002 3.19.01 5.124 2.037 5.11 5.098-.007 1.856-.04 3.712.01 5.567.055 2.187-1.3 3.97-3.263 4.515-.215.06-.424.142-.707.238l4.005 10.762c-1.622 0-3.15.012-4.675-.018-.152-.003-.375-.232-.44-.404-.875-2.32-1.73-4.65-2.59-6.976-.355-.96-.645-1.95-1.09-2.872-.218-.453-.223-.458-.56-.455-.83.01-1.616.004-2.502.004.002 3.57.002 7.104.002 10.69zm.026-21.41v5.98c2.042 0 4.034.013 6.025-.007.636-.006 1.135-.582 1.152-1.314.026-1.112.026-2.226 0-3.338-.017-.733-.516-1.308-1.152-1.314-1.992-.02-3.984-.008-6.025-.008zM121.944 45.64c0 2.736.052 5.475-.02 8.21-.044 1.667-.61 3.202-2.153 4.066-.728.408-1.625.677-2.457.708-2.432.092-4.87.07-7.304.022-2.604-.052-4.414-1.926-4.473-4.28-.14-5.555-.164-11.114-.145-16.67.007-1.82.587-3.54 2.298-4.496.76-.424 1.71-.658 2.588-.695 2.246-.095 4.5-.077 6.747-.02 3.07.076 4.775 1.836 4.896 4.944.108 2.733.024 5.473.024 8.21zm-4.6-.002c0-2.273.004-4.546-.003-6.82-.003-1.107-.478-1.6-1.52-1.603-1.462-.004-2.923-.007-4.385 0-.792.005-1.324.51-1.325 1.27-.005 4.73-.005 9.462 0 14.194 0 .642.417 1.188 1.053 1.225 1.52.09 3.047.183 4.565.123 1.2-.047 1.614-.632 1.614-1.85v-6.54zM78.638 75.867c0 2.714.018 5.428-.007 8.142-.015 1.83-.698 3.364-2.327 4.306-.548.317-1.24.52-1.873.535-2.574.06-5.15-.008-7.724.036-2.23.038-3.807-1.412-4.338-3.384-.206-.764-.29-1.58-.293-2.375-.026-4.825-.048-9.65.007-14.475.018-1.57.17-3.153 1.376-4.406.824-.857 1.79-1.386 2.96-1.402 2.644-.038 5.292-.083 7.933.01 2.143.076 3.625 1.445 4.127 3.652.166.73.148 1.507.153 2.263.018 2.364.008 4.73.008 7.097zM66.8 75.9v6.885c.002.97.502 1.48 1.48 1.487 1.414.01 2.828.007 4.242 0 .916-.003 1.51-.574 1.51-1.47.006-4.59.006-9.18 0-13.77 0-.976-.602-1.588-1.58-1.598-1.367-.014-2.736-.042-4.103.01-1.06.04-1.576.527-1.562 1.57.036 2.296.013 4.59.013 6.886zM98.83 75.837c0 2.69.033 5.38-.015 8.07-.026 1.47-.448 2.822-1.594 3.87-.762.695-1.638 1.086-2.66 1.093-2.55.017-5.102-.027-7.652.015-2.267.038-3.76-1.352-4.344-3.29-.208-.69-.294-1.437-.298-2.158-.024-5.125-.024-10.25-.005-15.374.006-1.298.345-2.516 1.14-3.582.797-1.065 1.888-1.61 3.175-1.634 2.643-.05 5.29-.08 7.93.004 2.253.07 3.947 1.63 4.145 3.908.218 2.502.133 5.032.177 7.55.01.508.002 1.02.002 1.53zm-4.602.042c0-2.228.006-4.454-.002-6.68-.004-1.078-.57-1.75-1.51-1.764-1.416-.022-2.83-.024-4.245 0-.877.017-1.314.378-1.47 1.214-.1.535-.138 1.09-.14 1.635-.01 4.013-.024 8.025.003 12.037.01 1.462.59 2.027 1.942 1.963 1.736-.01 1.74.014 3.546.007 1.26.007 1.897-.67 1.884-1.874-.022-2.18-.006-4.36-.006-6.54zM33.65 12.928V2.314h4.695v25.944h-4.67V17.63H26.45v10.615h-4.58V2.3h4.53V12.93h7.25zM42.06 62.863h4.55V73.5h7.236V62.888h4.55v25.945h-4.53V78.204h-7.227v10.614h-4.58V62.863zM20.198 68.177l-4.574 1.164c-.288-1.607-.645-1.91-2.26-1.91-1.138 0-2.274-.006-3.41.003-1.076.008-1.635.587-1.637 1.667 0 .858-.002 1.717 0 2.575.002.83.49 1.43 1.31 1.594 2.116.42 4.245.787 6.346 1.27 2.794.642 4.076 2.05 4.172 5.042.047 1.483.03 2.97.003 4.454-.046 2.707-1.722 4.872-4.798 4.844-2.412-.02-4.825.003-7.237-.006-2.665-.01-4.212-2.055-4.396-4.343-.023-.29-.038-.584-.058-.892.15-.06.31-.145.483-.187 1.36-.332 2.723-.657 4.086-.984.303 1.567.607 1.81 2.242 1.81 1.137 0 2.273.004 3.41 0 .89-.005 1.52-.418 1.618-1.278.104-.912.098-1.857-.018-2.768-.118-.933-.825-1.294-2.08-1.534-2.145-.41-4.298-.823-6.4-1.405-1.813-.5-3.265-2.217-3.292-4.337-.02-1.5-.164-3-.112-4.497.05-1.506.232-3 1.367-4.202.856-.905 1.863-1.403 3.083-1.416 2.482-.026 4.964-.008 7.446-.007 2.278 0 4.07 1.47 4.51 3.72.106.533.132 1.082.194 1.627zM45.948 23.708H57.85v4.537H41.364V2.3h16.49v4.527H45.958v6.136h7.145v4.608h-7.157v6.138zM58.51 58.657l-4.776-.007-.15-.587-.86-3.722h-4.968l-.88 3.817-.43.477-4.48.022 6.06-26.156h4.393l6.09 26.157zm-8.196-14.853l-.145-.005-1.32 5.752h2.78l-1.316-5.748zM35.113 82.47c1.368.33 2.695.66 4.028.966.378.086.524.254.515.655-.054 2.527-1.847 4.873-4.66 4.8-3.87 0-4.92-.014-7.38-.015-2.677 0-4.334-2.092-4.383-4.342-.113-5.258-.142-10.52-.142-15.778 0-1.362.1-2.742.94-3.945.897-1.283 2.086-1.97 3.65-1.976 2.296-.01 4.114-.005 6.89-.02 3.326 0 5.206 2.447 5.055 5.377l-4.51 1.154c-.244-1.425-.824-1.912-2.275-1.913-1.114 0-2.228-.003-3.342.002-1.125.006-1.688.572-1.688 1.688v13.646c0 1.006.5 1.502 1.53 1.508 1.996.02 1.996.02 3.62.01 1.62.05 1.893-.57 2.153-1.814zM8.3 47.91v10.714H3.58v-.73l-.014-24.57v-.865l15.82.014h.726v4.72H8.37v5.994h7.154v4.722H8.3zM23.06 32.474l4.752-.01v21.59H39.59v4.553H23.07l.004-.656-.015-25.476"/><path fill-rule="evenodd" clip-rule="evenodd" fill="#666" d="M73.315 32.5v4.69h-5.922v21.42H62.77V37.236h-5.806V32.5h16.35zM8.38 6.857H2.374V2.29h16.488v4.536h-5.936v21.438H8.312V6.857"/><path fill-rule="evenodd" clip-rule="evenodd" fill="#666" d="M102.47 88.83V62.873h4.572v21.382h11.925v4.573H102.47zM76.96 58.617v-.706l-.008-25.41v-.037l4.563.038v26.117H76.96z"/><g fill-rule="evenodd" clip-rule="evenodd" fill="#45A2CE"><path d="M72.757 6.484l-4.965 16.183-2.237 7.45-.157.538-3.283.002.61-2.096 3.652-11.938 5.05-16.717.614-.012 2.687.01"/><path d="M76.778 30.624h-3.306l9.282-30.69h3.34l-9.316 30.69z"/></g></svg>