<svg width="46" height="32" viewBox="0 0 46 32" xmlns="http://www.w3.org/2000/svg"><title>YLD Logo</title><path d="M12.016 9.385c-.59-.203-1.115-.88-1.167-1.505l-.562-6.743C10.236.512 9.683 0 9.06 0H1.04C.417 0-.05.51.004 1.136l1.28 14.918c.054.625.588 1.278 1.187 1.45l14.038 4.052c.6.173 1.094.828 1.1 1.456l.065 6.683c.006.627.51 1.25 1.118 1.386l3.015.67c.608.136 1.106.248 1.106.25 0 .002.505-.075 1.12-.172l3.36-.524c.616-.096 1.125-.688 1.13-1.315l.07-7.035c.005-.628.5-1.282 1.1-1.456l13.84-3.995c.598-.173 1.132-.826 1.186-1.45l1.28-14.92C46.05.512 45.583 0 44.96 0h-8.02c-.623 0-1.175.512-1.228 1.137l-.56 6.743c-.053.625-.577 1.304-1.167 1.507l-9.867 3.408c-.59.203-1.554.205-2.144.002l-9.958-3.412z" fill="#fff"/></svg>